<?xml version="1.0" encoding="UTF-8" standalone="no"?>
<!-- Created with Inkscape (http://www.inkscape.org/) -->

<svg
   xmlns:dc="http://purl.org/dc/elements/1.1/"
   xmlns:cc="http://creativecommons.org/ns#"
   xmlns:rdf="http://www.w3.org/1999/02/22-rdf-syntax-ns#"
   xmlns:svg="http://www.w3.org/2000/svg"
   xmlns="http://www.w3.org/2000/svg"
   xmlns:sodipodi="http://sodipodi.sourceforge.net/DTD/sodipodi-0.dtd"
   xmlns:inkscape="http://www.inkscape.org/namespaces/inkscape"
   id="svg4173"
   version="1.1"
   inkscape:version="0.91 r13725"
   width="633.24225"
   height="1678.6764"
   viewBox="0 0 633.24225 1678.6764"
   sodipodi:docname="Easel.svg">
  <metadata
     id="metadata4179">
    <rdf:RDF>
      <cc:Work
         rdf:about="">
        <dc:format>image/svg+xml</dc:format>
        <dc:type
           rdf:resource="http://purl.org/dc/dcmitype/StillImage" />
        <dc:title></dc:title>
      </cc:Work>
    </rdf:RDF>
  </metadata>
  <defs
     id="defs4177" />
  <sodipodi:namedview
     pagecolor="#ffffff"
     bordercolor="#666666"
     borderopacity="1"
     objecttolerance="10"
     gridtolerance="10"
     guidetolerance="10"
     inkscape:pageopacity="0"
     inkscape:pageshadow="2"
     inkscape:window-width="1600"
     inkscape:window-height="837"
     id="namedview4175"
     showgrid="false"
     inkscape:zoom="0.3990322"
     inkscape:cx="315.29672"
     inkscape:cy="839.10125"
     inkscape:window-x="-8"
     inkscape:window-y="-8"
     inkscape:window-maximized="1"
     inkscape:current-layer="svg4173"
     fit-margin-top="0"
     fit-margin-left="0"
     fit-margin-right="0"
     fit-margin-bottom="0" />
  <path
     style="fill:#000000"
     d="m 353.73422,1678.2302 c -0.77344,-0.4641 -2.67702,-1.3103 -4.23019,-1.8802 -8.50142,-3.1198 -8.47149,-2.9788 -9.36151,-44.1186 -0.46007,-21.2661 -0.93601,-36.3361 -2.84233,-90 -0.28391,-7.9922 -0.85703,-22.5469 -1.2736,-32.3437 -0.41656,-9.7969 -0.75285,-19.0782 -0.7473,-20.625 0.0281,-7.834 -1.48053,-56.4412 -2.67696,-86.25 -1.59826,-39.8206 -3.0935,-80.5034 -3.7041,-100.7813 -0.88106,-29.2601 -1.49244,-44.5961 -1.8874,-47.3437 -0.22236,-1.5469 -0.6443,-13.5704 -0.93765,-26.7188 -0.29335,-13.1484 -0.93498,-33.1875 -1.42584,-44.5312 -0.49087,-11.3438 -1.1081,-26.9532 -1.37162,-34.6875 -0.85196,-25.004 -2.33022,-58.0007 -2.81404,-62.8125 -0.25923,-2.5782 -0.68425,-8.4844 -0.94451,-13.125 -0.26025,-4.6407 -0.9361,-12.526 -1.50187,-17.523 -0.56576,-4.9971 -1.0925,-10.6924 -1.1705,-12.6563 -0.20596,-5.1854 -2.56192,-5.0429 -17.81443,1.0775 -15.20687,6.102 -19.58809,7.0644 -22.04365,4.8422 -2.73778,-2.4778 -18.01161,-7.2765 -21.04496,-6.6121 -1.89093,0.4142 -3.61369,-0.051 -6.09375,-1.6425 -1.90165,-1.221 -4.30129,-2.6744 -5.33254,-3.2299 -1.03125,-0.5555 -2.00404,-1.872 -2.16175,-2.9257 -0.15771,-1.0536 -1.10693,-2.658 -2.10938,-3.5652 -2.60347,-2.356 -2.38255,-8.3749 0.5172,-14.0905 1.28691,-2.5366 2.3416,-5.5127 2.34375,-6.6136 0.004,-1.9479 3.51265,-5.0297 5.72664,-5.0297 0.60564,0 3.04626,-1.1889 5.4236,-2.6421 4.03286,-2.465 9.96588,-4.70713 16.44288,-6.21388 1.50999,-0.35128 6.00645,-2.12934 9.99213,-3.95128 l 7.2467,-3.31256 0.63189,-6.29213 c 1.30051,-12.94997 0.91581,-36.31087 -0.63699,-38.68069 -1.17375,-1.79137 -1.35829,-4.52231 -1.00338,-14.8481 0.75236,-21.88905 0.67025,-24.68927 -0.90709,-30.93424 -0.84653,-3.35156 -2.19389,-10.3125 -2.99414,-15.46875 -0.80025,-5.15625 -2.12481,-12.75 -2.94346,-16.875 -0.81865,-4.125 -1.67046,-11.50781 -1.8929,-16.40625 -1.46384,-32.2366 -2.60288,-47.66368 -3.80086,-51.47836 -0.89063,-2.83602 -1.33378,-8.29785 -1.29991,-16.02164 0.0528,-12.02739 -1.22859,-19.65243 -6.53793,-38.90625 -1.13749,-4.125 -2.4968,-9.1875 -3.02068,-11.25 -0.52389,-2.0625 -1.28561,-4.80469 -1.69272,-6.09375 -3.32894,-10.54088 -4.15241,-16.77688 -3.71391,-28.125 0.85609,-22.15568 -0.16029,-43.73723 -2.67117,-56.71875 -0.49866,-2.57813 -1.39326,-10.38281 -1.988,-17.34375 -0.59474,-6.96094 -1.75903,-14.97656 -2.58731,-17.8125 -0.82829,-2.83594 -1.6063,-9.16406 -1.72892,-14.0625 -0.61759,-24.66988 -2.96074,-46.95724 -5.0741,-48.26336 -0.96226,-0.59471 -3.0873,5.95121 -5.6246,17.32586 -1.09267,4.89844 -2.59119,11.01562 -3.33004,13.59375 -1.76752,6.16751 -6.06403,23.61858 -6.69365,27.1875 -0.2729,1.54687 -1.50596,6.08849 -2.74015,10.09248 -1.23419,4.00399 -2.62618,9.48836 -3.09328,12.1875 -0.46712,2.69914 -1.77029,9.12627 -2.89593,14.28252 -1.12564,5.15625 -2.83662,14.4375 -3.80217,20.625 -0.96555,6.1875 -3.06268,16.73437 -4.66028,23.4375 -3.49606,14.66853 -4.06648,17.30444 -6.04453,27.93175 -0.84397,4.53434 -1.9346,9.29663 -2.42363,10.58285 -0.80861,2.12682 -3.38397,13.44947 -9.89792,43.51665 -1.28465,5.92969 -2.91778,12.89062 -3.62916,15.46875 -1.36238,4.93737 -4.04378,17.35826 -9.81569,45.46875 -1.24107,6.04427 -4.54127,20.78356 -6.6122,29.53125 -0.97655,4.125 -2.90629,12.98437 -4.28832,19.6875 -1.38202,6.70312 -4.15071,19.14844 -6.15264,27.65625 -3.43756,14.60892 -5.87004,25.08085 -8.81958,37.96875 -0.70804,3.09375 -2.55902,11.10937 -4.11329,17.8125 -1.55427,6.70313 -3.28605,14.71875 -3.8484,17.8125 -1.15199,6.33769 -3.9962,18.98259 -6.00981,26.71873 -0.73816,2.8359 -2.25976,10.0078 -3.38135,15.9375 -1.12157,5.9297 -2.78505,13.9453 -3.69661,17.8125 -0.91156,3.8672 -2.34156,10.1953 -3.17776,14.0625 -1.77628,8.2147 -7.58704,34.3216 -9.5986,43.125 -2.89432,12.6668 -5.15931,23.2033 -6.44898,30 -0.7338,3.8672 -2.36571,11.25 -3.62645,16.4063 -1.26074,5.1562 -2.78308,11.9062 -3.38297,15 -0.59989,3.0937 -2.30661,10.8984 -3.7927,17.3437 -1.48611,6.4453 -3.823362,16.7813 -5.193902,22.9688 -1.370541,6.1875 -3.032466,13.1484 -3.693178,15.4687 -0.660707,2.3203 -1.937647,7.8047 -2.837644,12.1875 -0.899997,4.3828 -2.691018,12.6094 -3.980048,18.2813 -1.289028,5.6718 -2.52537,11.3671 -2.747427,12.6562 -0.634763,3.6848 -4.013892,19.2453 -6.413056,29.5313 -1.202679,5.1562 -3.105912,13.5937 -4.229407,18.75 -1.123495,5.1562 -3.278139,14.2265 -4.788097,20.1562 -1.509958,5.9297 -3.385951,13.9453 -4.168874,17.8125 -1.596709,7.8868 -6.378679,28.0079 -8.355221,35.1563 -0.712862,2.5781 -1.798606,8.4843 -2.412765,13.125 -1.044077,7.889 -2.796917,17.1306 -6.223518,32.8125 -0.788676,3.6093 -1.372758,7.6171 -1.297959,8.9062 0.866695,14.9364 -2.225094,23.6341 -9.288379,26.1297 -5.622727,1.9867 -18.471938,2.5173 -20.383102,0.8418 -2.355451,-2.065 -7.7458447,-4.6921 -11.0094218,-5.3656 -2.3675886,-0.4885 -2.9330849,-1.1682 -3.5747752,-4.2963 -0.4192513,-2.0437 -1.11597645,-4.863 -1.54827816,-6.2651 -0.43230164,-1.402 -0.44089189,-4.1442 -0.0190894,-6.0938 2.76043246,-12.7581 5.96686026,-26.7978 7.12574146,-31.2007 1.3499,-5.1286 1.9780813,-8.1366 4.5031071,-21.5625 0.727306,-3.8672 2.176273,-10.6172 3.219927,-15 1.043653,-4.3828 2.172335,-9.4453 2.508181,-11.25 0.335846,-1.8047 1.809713,-8.3438 3.275261,-14.5313 3.991664,-16.8526 7.984261,-34.4226 12.569181,-55.3125 2.263401,-10.3125 6.695678,-30.3515 9.849506,-44.5312 3.153827,-14.1797 6.992462,-31.4766 8.530299,-38.4375 4.361597,-19.7425 7.479283,-33.3971 9.953581,-43.5938 2.536172,-10.4516 4.283551,-18.089 5.898555,-25.7812 0.595414,-2.8359 1.67354,-7.8984 2.395836,-11.25 0.722297,-3.3516 2.164433,-10.5234 3.204745,-15.9375 1.040314,-5.4141 2.482429,-12.1641 3.2047,-15 0.72227,-2.8359 1.816736,-7.8984 2.432146,-11.25 0.615408,-3.3516 2.532238,-12 4.259619,-19.2188 1.727381,-7.2187 3.61817,-15.4453 4.201751,-18.2812 0.583582,-2.8359 1.452677,-6.6328 1.931323,-8.4375 1.177742,-4.4406 5.573689,-24.3512 7.037492,-31.875 2.22331,-11.42764 5.12825,-24.82836 7.92578,-36.56248 1.53663,-6.44531 3.64512,-15.72656 4.68552,-20.625 1.0404,-4.89844 2.73174,-12.07031 3.75855,-15.9375 1.0268,-3.86719 2.48503,-10.40625 3.24048,-14.53125 0.75547,-4.125 2.04412,-10.45313 2.86368,-14.0625 0.81955,-3.60938 2.50367,-11.20313 3.74247,-16.875 1.23882,-5.67188 3.12111,-14.10938 4.18289,-18.75 1.06178,-4.64063 3.17728,-14.34375 4.70111,-21.5625 4.36785,-20.69166 7.46217,-34.8259 9.95418,-45.46875 1.26769,-5.41406 3.55737,-15.75 5.08816,-22.96875 1.5308,-7.21875 3.4295,-15.86719 4.21934,-19.21875 0.78983,-3.35156 2.88476,-13.38023 4.6554,-22.28594 1.77063,-8.90571 3.41266,-16.50501 3.64896,-16.88734 0.2363,-0.38234 1.54632,-6.38491 2.91117,-13.33906 1.36486,-6.95415 3.75347,-18.7611 5.30803,-26.23766 1.55457,-7.47656 3.39656,-16.33594 4.09331,-19.6875 3.50478,-16.85895 11.89071,-53.53644 13.61119,-59.53125 1.04107,-3.62743 5.83774,-24.50758 8.39929,-36.5625 1.09566,-5.15625 2.61026,-11.69531 3.3658,-14.53125 1.71474,-6.43636 3.91998,-15.49579 5.70516,-23.4375 9.9724,-44.36423 12.14333,-54.57393 13.95409,-65.625 0.71814,-4.38281 2.20456,-11.76563 3.30315,-16.40625 1.09859,-4.64063 2.32701,-9.91406 2.72983,-11.71875 0.40282,-1.80469 2.30826,-10.24219 4.23431,-18.75 l 3.50192,-15.46875 -1.17892,-9.375 c -0.64842,-5.15625 -1.13239,-10.64063 -1.0755,-12.1875 0.0569,-1.54688 -0.93672,-9.53911 -2.20799,-17.76053 -1.37412,-8.88644 -2.30891,-18.96085 -2.30522,-24.84375 0.004,-5.44264 -0.4455,-13.27072 -0.99757,-17.39572 -0.55206,-4.125 -1.80323,-13.40625 -2.78038,-20.625 -0.97715,-7.21875 -2.24426,-19.875 -2.8158,-28.125 -0.57155,-8.25 -1.8977,-18.95827 -2.947,-23.79613 -3.90359,-17.99768 -1.342,-27.42129 7.78292,-28.63175 2.53985,-0.33692 8.15799,-1.86207 12.48474,-3.38923 9.70519,-3.4255 10.52114,-3.42395 24.42314,0.0465 l 11.25,2.80842 1.65251,-1.99683 c 0.90889,-1.09826 1.89386,-3.10365 2.18882,-4.45641 0.29497,-1.35277 1.34734,-5.72966 2.33861,-9.72643 2.08371,-8.4014 2.67703,-61.6276 0.85431,-76.6394 -2.70967,-22.316595 -1.61614,-51.858547 2.12427,-57.388003 1.67063,-2.469681 6.36557,-7.220152 10.74284,-10.869888 l 3.02636,-2.523348 -1.383,-13.125 C 288.71851,10.01149 291.0536,2.8564206 301.92819,2.8564206 c 1.97978,0 6.11401,-0.665633 9.18719,-1.4791843 20.61566,-5.457513 26.97088,4.2234173 31.92718,48.6347557 0.55918,5.010542 0.81261,5.477995 3.23239,5.961952 7.0283,1.405658 14.3695,17.937745 17.21055,38.757477 0.31664,2.320312 1.61581,8.859379 2.88708,14.531249 2.93263,13.08427 5.00979,25.00901 6.12383,35.15625 0.48118,4.38281 1.53886,10.92187 2.35038,14.53125 0.81154,3.60937 1.84232,8.6966 2.29063,11.30493 0.4483,2.60834 1.47617,7.03803 2.28415,9.84375 0.80798,2.80573 2.29447,9.10913 3.30333,14.00757 1.00884,4.89844 2.45252,11.64844 3.20816,15 0.75563,3.35156 2.30285,10.3125 3.43824,15.46875 1.1354,5.15625 2.58512,10.21875 3.22159,11.25 0.63648,1.03125 1.43421,3.00037 1.77274,4.37582 0.56762,2.30625 1.32676,2.65481 9.75767,4.4803 5.02819,1.08872 11.88436,2.64617 15.23592,3.46101 3.35156,0.81484 8.83594,2.11769 12.1875,2.89522 3.35156,0.77754 10.94531,2.67306 16.875,4.21227 5.92969,1.53921 14.15625,3.64861 18.28125,4.68755 4.125,1.03895 9.60937,2.54669 12.1875,3.35056 2.57812,0.80386 7.76467,1.74173 11.52567,2.08415 8.68251,0.7905 9.94372,2.24678 10.13525,11.70283 0.17567,8.67251 2.9119,41.14771 4.2655,50.62529 0.58915,4.125 1.05928,8.34375 1.04476,9.375 -0.066,4.68555 2.69782,35.60245 3.57968,40.0438 1.04779,5.27706 1.76851,12.08016 4.05079,38.23745 0.78732,9.02344 1.88023,19.35938 2.42871,22.96875 1.9505,12.83572 8.57108,75.43503 10.85707,102.65625 2.18523,26.02134 3.56025,40.79441 6.06452,65.15625 0.58304,5.67187 1.22733,13.65233 1.43176,17.73433 0.20442,4.08202 0.78566,9.77733 1.29163,12.65625 0.50598,2.87893 1.36289,11.14067 1.90426,18.35942 1.4537,19.38411 3.48435,39.57007 4.07712,40.52919 0.28575,0.46237 0.79947,5.45432 1.14158,11.09323 0.3421,5.63893 0.87673,10.67291 1.18805,11.18665 0.31131,0.51374 0.84574,5.78718 1.18763,11.71875 0.34189,5.93157 1.31349,16.26905 2.15909,22.97218 0.84562,6.70312 2.3921,19.99219 3.43664,29.53125 2.12481,19.40448 2.09246,19.10558 4.66881,43.125 1.02317,9.53906 2.45974,21.98437 3.19237,27.65625 0.73263,5.67187 1.82295,14.53125 2.42293,19.6875 0.59998,5.15625 1.45425,10.30258 1.8984,11.43629 l 0.80751,2.06129 6.59264,-1.82691 c 8.13881,-2.25539 9.30241,-2.25082 12.24138,0.0481 1.28906,1.00832 3.72907,1.84268 5.42225,1.85415 2.51418,0.0171 3.43336,0.62231 5.01447,3.3021 2.21788,3.75904 2.06129,3.70097 5.35613,1.98616 17.57083,-9.14473 43.42827,-1.03027 32.25402,10.12182 -0.38671,0.38595 -1.1304,2.22033 -1.65263,4.07639 -0.67579,2.40178 -1.62834,3.5562 -3.30421,4.00439 -2.26912,0.60686 -8.63526,3.58426 -14.49628,6.77981 -2.71538,1.48049 -4.93456,2.49462 -16.7433,7.65142 -4.53321,1.97962 -5.36389,2.68672 -4.75284,4.04571 0.40725,0.90573 0.91747,5.59104 1.13384,10.41177 l 0.39339,8.76497 -3.14055,3.30628 c -7.01805,7.38844 -14.19773,7.82344 -26.25064,1.59065 -1.41792,-0.73321 -3.58829,-1.33312 -4.82304,-1.33312 -1.23475,0 -3.04868,-0.90197 -4.03093,-2.00438 -4.3081,-4.83506 -8.98227,-5.19825 -17.25468,-1.34053 -6.52871,3.04463 -6.70127,3.20888 -5.57697,5.30963 1.28103,2.39362 4.23877,18.07406 5.11135,27.09778 0.37395,3.86719 1.04469,7.72519 1.49052,8.57334 0.44584,0.84816 1.42467,4.85597 2.1752,8.90625 0.75052,4.05027 2.24915,12.00477 3.33028,17.67667 1.08114,5.6718 2.56371,13.8984 3.29461,18.2812 2.42624,14.5489 6.97923,39.7506 8.38386,46.4063 0.76172,3.6093 2.47601,12.8906 3.80952,20.625 2.65124,15.3772 4.5623,25.0892 6.64103,33.75 0.74256,3.0937 1.74418,8.3671 2.22583,11.7187 0.48165,3.3516 1.7477,10.3125 2.81343,15.4688 1.06573,5.1562 2.37703,11.6953 2.914,14.5312 0.53696,2.8359 1.82644,8.9531 2.86551,13.5938 1.03907,4.6406 2.25538,10.7578 2.70292,13.5937 0.44753,2.8359 1.72392,9.7969 2.83641,15.4688 1.1125,5.6718 2.34407,12.6328 2.73684,15.4687 0.39276,2.8359 1.40744,8.5313 2.25483,12.6563 0.84737,4.125 2.21081,10.875 3.02983,15 0.81902,4.125 2.08749,10.1179 2.81882,13.3176 0.73132,3.1997 1.32968,7.0226 1.32968,8.4954 0,1.4727 0.84887,5.9185 1.88636,9.8795 1.03751,3.9611 2.89997,12.3726 4.13881,18.6922 1.23884,6.3197 2.46192,12.5449 2.71795,13.834 0.25604,1.2891 2.23931,10.5703 4.40729,20.625 2.16797,10.0547 4.34537,20.8125 4.83866,23.9063 0.49329,3.0937 1.46876,7.9453 2.16771,10.7812 1.04898,4.2561 3.33402,15.4003 8.3619,40.7813 0.30644,1.5468 1.57964,8.5078 2.82935,15.4687 1.24971,6.9609 3.35608,18.4441 4.68084,25.5182 3.2384,17.2928 2.07399,23.0644 -4.93608,24.4664 -3.76978,0.7539 -7.65529,4.1744 -7.65529,6.739 0,2.6989 -2.53484,3.692 -6.03096,2.3628 -3.72989,-1.4181 -7.09404,-1.2071 -7.09404,0.4449 0,2.3282 -5.33662,1.7874 -6.93832,-0.7032 -3.16043,-4.9143 -9.15533,-30.1834 -13.62287,-57.4218 -2.11428,-12.8907 -5.32474,-31.875 -7.13435,-42.1875 -1.80962,-10.3125 -4.12311,-23.538 -5.14108,-29.3901 -1.01799,-5.852 -1.86465,-13.2348 -1.88149,-16.4063 -0.018,-3.3872 -0.81211,-7.8933 -1.92491,-10.9224 -2.42688,-6.6059 -5.90646,-20.1805 -7.32939,-28.5937 -0.61045,-3.6094 -2.32231,-12.0469 -3.80415,-18.75 -2.84899,-12.8877 -8.63394,-42.7271 -10.72337,-55.3125 -1.37952,-8.3094 -6.186,-32.8684 -8.99048,-45.9375 -0.99582,-4.6407 -2.06767,-10.125 -2.38187,-12.1875 -0.3142,-2.0625 -1.17283,-6.3012 -1.90807,-9.4193 -0.73524,-3.118 -2.38423,-11.7665 -3.66443,-19.2187 -2.45005,-14.2621 -4.34517,-24.2354 -6.67205,-35.112 -0.77216,-3.6094 -2.23332,-11.3761 -3.24702,-17.2594 -1.01371,-5.8834 -2.22448,-11.1568 -2.69062,-11.7188 -0.46614,-0.562 -1.49467,-4.3969 -2.28563,-8.5218 -0.79096,-4.125 -2.98525,-14.8829 -4.87622,-23.9063 -1.89095,-9.0234 -3.76207,-18.7266 -4.15803,-21.5625 -0.39597,-2.8359 -1.16053,-6.4219 -1.69904,-7.9687 -0.53851,-1.5469 -2.3031,-10.4063 -3.92132,-19.6876 -1.61822,-9.28117 -3.75797,-19.92461 -4.755,-23.65201 -0.99703,-3.72741 -1.81279,-8.19225 -1.81279,-9.92185 0,-5.00765 -0.81817,-4.97728 -13.125,0.48741 -2.83594,1.25925 -6.84375,2.96897 -8.90625,3.7994 -4.71277,1.8975 -25.14999,10.04035 -37.5,14.94132 -28.13827,11.16623 -26.26935,9.99463 -24.38533,15.28593 4.87116,13.6806 -8.45232,31.8587 -19.92244,27.1813 -0.89635,-0.3655 -4.37192,-1.0394 -7.72348,-1.4974 -3.35156,-0.458 -8.61349,-1.2333 -11.69316,-1.7227 -7.25172,-1.1527 -7.56961,1.7107 -5.87401,52.9112 1.46048,44.1005 2.59433,73.6089 3.47625,90.4687 0.49898,9.5391 1.13679,25.5809 1.41735,35.6485 0.63619,22.8285 2.07736,60.0621 3.30122,85.289 0.91279,18.8148 2.71707,61.9998 4.66111,111.5625 0.53596,13.6641 1.40389,33.7031 1.92873,44.5313 0.52484,10.8281 1.13904,25.1718 1.36491,31.875 1.02408,30.393 1.66368,47.164 1.93068,50.625 0.15911,2.0625 0.52574,11.9765 0.81472,22.0312 1.72357,59.9688 3.21811,92.8053 4.28834,94.2188 3.05612,4.0363 0.58382,16.2034 -3.74114,18.4116 -0.77344,0.395 -2.88281,1.3816 -4.6875,2.1925 -1.80469,0.811 -5.38654,3.018 -7.95966,4.9047 -2.57312,1.8865 -5.52625,3.5092 -6.5625,3.6059 -1.03625,0.097 -3.14971,0.4337 -4.69659,0.7488 -1.54687,0.3152 -3.44531,0.1933 -4.21875,-0.271 z m 16.88371,-16.1556 8.70261,-5.7818 -0.60728,-18.3588 c -0.33401,-10.0974 -0.80137,-22.5776 -1.03859,-27.7338 -0.77008,-16.7386 -2.37899,-63.3058 -2.80775,-81.2655 -0.22998,-9.6335 -0.64113,-20.6023 -0.91367,-24.375 -0.27254,-3.7727 -0.77618,-15.508 -1.11922,-26.0783 -0.34303,-10.5703 -0.72383,-20.6953 -0.8462,-22.5 -0.43602,-6.4303 -2.37659,-53.3925 -3.2541,-78.75 -1.21914,-35.23 -2.64143,-70.086 -3.72981,-91.4062 -1.84602,-36.1614 -2.31872,-46.9081 -2.1237,-48.2813 0.10984,-0.7734 -0.21059,-3.3047 -0.71208,-5.625 -0.50149,-2.3203 -1.12246,-17.7187 -1.37993,-34.2187 -0.43643,-27.9684 -0.85277,-37.0305 -3.27344,-71.25 -0.51064,-7.2188 -1.18009,-24.0938 -1.48766,-37.5 -0.67416,-29.3857 -1.05979,-32.7036 -3.84719,-33.1008 -2.4153,-0.3442 -3.49612,3.1115 -3.36434,10.7569 0.16107,9.3455 -4.58927,10.2859 -6.13778,1.2151 -0.52582,-3.0801 -1.30758,-4.4505 -3.02927,-5.3099 l -2.32056,-1.1583 -0.27827,12.861 c -0.15305,7.0735 -0.0178,14.2887 0.30045,16.0335 l 0.57871,3.1727 3.54258,-3.4592 3.54258,-3.4592 3.45182,1.646 c 3.83746,1.8299 4.01677,2.3217 4.67459,12.8225 0.79831,12.7432 -7.02866,15.0658 -13.22679,3.9249 -0.57133,-1.0269 -1.35695,-1.549 -1.74579,-1.1601 -1.15077,1.1508 1.15653,68.0418 2.39861,69.5383 0.80372,0.9684 0.80253,1.457 -0.005,1.9559 -0.75801,0.4685 -0.90012,3.3335 -0.48078,9.6929 0.8912,13.5156 3.43931,77.3415 5.68181,142.32 0.28789,8.3419 0.9359,22.8966 1.44003,32.3437 1.07272,20.1024 2.79556,69.906 3.25351,94.0515 0.17602,9.2813 0.5619,22.3594 0.85751,29.0625 1.26544,28.6942 2.45088,57.9878 3.3386,82.5 0.52286,14.4375 1.15557,30.8907 1.40601,36.5625 0.25044,5.6719 0.90299,21.9141 1.45012,36.0938 1.35422,35.0975 0.13221,32.84 13.10943,24.2182 z m -3.33525,-16.9669 c -0.25036,-0.6524 -0.62928,-7.9298 -0.84204,-16.1719 -0.58336,-22.5986 -1.66453,-31.8198 -4.12023,-35.1413 l -2.05266,-2.7763 0.14826,-68.6903 c 0.14701,-68.1128 -0.0869,-78.328 -2.04052,-89.1014 -0.55642,-3.0685 -0.82961,-6.0594 -0.60708,-6.6465 0.75612,-1.9947 -1.33521,-14.1817 -2.82857,-16.483 -1.22464,-1.8873 -1.5414,-6.1798 -1.7987,-24.375 -0.53957,-38.1564 -1.16777,-56.4499 -2.28555,-66.5561 -0.64485,-5.8301 -0.84137,-14.7334 -0.48629,-22.0312 0.32774,-6.7359 0.55264,-15.544 0.49976,-19.5738 -0.0529,-4.0297 0.36916,-10.1469 0.93785,-13.5937 0.56868,-3.4469 1.37308,-11.4465 1.78753,-17.777 0.67095,-10.2483 1.84619,-14.7524 3.4348,-13.1637 1.82584,1.8257 1.83046,13.7527 0.0117,30.2987 -1.5995,14.5515 -2.13238,41.778 -1.13764,58.125 0.31377,5.1562 1.01779,20.7656 1.56448,34.6875 0.5467,13.9218 1.20185,26.3671 1.4559,27.6562 0.25406,1.2891 0.0693,5.4366 -0.41056,9.2167 -0.77986,6.1432 -0.6193,7.7356 1.51248,15 1.41148,4.8098 2.48606,11.0604 2.63264,15.3136 0.13623,3.9525 0.94853,9.2965 1.8051,11.8755 1.25919,3.7909 1.39164,5.9156 0.69165,11.0947 -0.60959,4.5103 -0.46364,10.7055 0.49323,20.937 0.78626,8.4073 1.12087,18.0871 0.79395,22.9688 -0.41001,6.1226 -1.70137,81.0592 -1.55093,90 0.0482,2.8645 1.95251,8.8844 3.76682,11.9074 1.80592,3.0092 2.02561,4.4342 1.65422,10.73 -0.29654,5.0271 -4.7e-4,8.4291 0.96267,11.0613 1.39676,3.8172 1.19095,27.0337 -0.27349,30.8499 -0.70026,1.8249 -3.06857,2.0534 -3.71883,0.3589 z m -20.46539,-425.8021 c -2.15678,-3.2917 -2.44032,-14.99 -0.46688,-19.2617 3.02291,-6.5433 3.92244,-11.0372 3.22838,-16.1285 -0.63573,-4.6634 -1.29902,-18.1907 -1.37949,-28.1335 -0.0197,-2.43 -0.69692,-6.0006 -1.505,-7.9346 -1.22044,-2.9209 -1.30172,-4.6335 -0.47997,-10.113 0.5441,-3.6281 1.08757,-8.913 1.2077,-11.7441 0.16692,-3.9336 0.58419,-5.217 1.76937,-5.4421 2.76089,-0.5245 4.04348,5.5993 2.72175,12.9952 -0.85497,4.7842 -0.86964,7.1962 -0.0604,9.9259 0.95763,3.23 2.7622,29.4835 3.21211,46.7309 0.10442,4.0029 0.83478,8.0234 1.87254,10.3079 5.32492,11.7221 -3.73271,28.5461 -10.12018,18.7976 z m 266.12925,263.8704 c 2.5015,-2.7641 1.34273,-18.0998 -1.90339,-25.1903 -1.26991,-2.7739 -2.30893,-6.1641 -2.30893,-7.5339 0,-9.1856 -3.95419,-29.7553 -6.61348,-34.4032 -2.11177,-3.691 -3.06171,-6.9655 -3.82066,-13.1703 -0.55556,-4.5418 -1.80784,-10.2816 -2.78284,-12.7552 -0.97501,-2.4736 -2.22241,-7.5464 -2.77201,-11.2727 -0.54959,-3.7264 -1.56085,-8.8846 -2.24723,-11.4627 -0.68639,-2.5782 -1.48663,-8.1054 -1.77831,-12.2828 -0.31306,-4.4836 -1.56092,-10.6289 -3.0459,-15 -1.73938,-5.12 -2.7188,-10.4421 -3.17423,-17.2485 -0.36227,-5.4141 -1.52592,-13.0078 -2.5859,-16.875 -1.05998,-3.8672 -2.59758,-10.6477 -3.4169,-15.068 -0.81931,-4.4202 -2.54949,-11.376 -3.84484,-15.4574 -1.29537,-4.0813 -2.3552,-8.6339 -2.3552,-10.1167 0,-7.124 -5.54493,-37.0608 -10.21653,-55.1586 -1.55558,-6.0263 -3.11344,-13.1982 -3.46189,-15.9375 -0.34846,-2.7394 -1.01492,-5.4645 -1.48103,-6.056 -0.4661,-0.5914 -1.21788,-4.1774 -1.67061,-7.9687 -0.45273,-3.7914 -1.51038,-9.0027 -2.35033,-11.5809 -1.71253,-5.2563 -5.42819,-31.2074 -4.64883,-32.4684 2.23229,-3.6119 5.11318,3.4072 6.97005,16.982 0.5982,4.373 1.50751,8.7356 2.02071,9.6946 0.5132,0.9588 1.71953,6.4512 2.68074,12.2051 0.9612,5.754 2.77237,14.6805 4.02481,19.8367 4.53797,18.6827 5.22658,21.6926 6.75612,29.5313 0.8552,4.3828 2.55977,12.8203 3.78792,18.75 1.22815,5.9297 2.24276,12.66 2.25469,14.9561 0.0119,2.2962 1.26947,8.2025 2.79455,13.125 1.52509,4.9226 3.62968,13.8017 4.67688,19.7314 1.0472,5.9297 2.58845,13.1016 3.42501,15.9375 0.83655,2.8359 1.5998,8.5312 1.69612,12.6562 0.12459,5.3356 0.93565,9.7996 2.81051,15.4688 1.4686,4.4407 2.94529,11.5206 3.33534,15.991 0.38497,4.4123 1.35842,10.1076 2.16322,12.6563 0.8048,2.5487 1.73963,7.3761 2.0774,10.7277 0.33776,3.3516 1.4582,7.9922 2.48984,10.3125 1.03164,2.3203 2.24072,7.5937 2.68685,11.7187 0.85356,7.8924 2.0808,12.2254 4.7795,16.875 0.89782,1.5469 2.30319,6.8204 3.12304,11.7188 0.81985,4.8984 1.88471,10.8047 2.36635,13.125 0.48165,2.3203 1.14369,6.9609 1.47121,10.3125 0.32752,3.3516 1.40388,7.6888 2.39192,9.6382 0.98804,1.9495 1.79644,4.9378 1.79644,6.6405 0,4.5097 1.99477,13.7213 2.97135,13.7213 1.86362,0 1.87822,-3.3713 0.048,-11.0913 -1.05974,-4.4701 -2.19032,-10.2368 -2.51239,-12.815 -0.32207,-2.5781 -1.20721,-7.4296 -1.96698,-10.7812 -0.75976,-3.3516 -2.46672,-12.8005 -3.79322,-20.9978 -1.32651,-8.1972 -2.59248,-15.3748 -2.81327,-15.9501 -0.2208,-0.5754 -1.42814,-6.7358 -2.68299,-13.6898 -2.16667,-12.007 -5.35465,-28.5771 -8.47489,-44.0498 -0.77986,-3.8672 -1.85206,-9.7734 -2.38267,-13.125 -0.53061,-3.3516 -1.98737,-10.5234 -3.23725,-15.9375 -1.24989,-5.4141 -4.21579,-19.9688 -6.59089,-32.3438 -2.37511,-12.375 -5.32387,-27.1406 -6.55281,-32.8125 -2.21821,-10.2375 -9.47096,-47.3961 -15.91967,-81.5625 -1.84911,-9.7968 -4.40086,-23.2968 -5.67055,-30 -5.52429,-29.1645 -8.03874,-42.5541 -8.9788,-47.8125 -0.55308,-3.0937 -1.3363,-6.8906 -1.7405,-8.4375 -0.40419,-1.5468 -1.46442,-7.0312 -2.35607,-12.1875 -0.89164,-5.1562 -3.02424,-16.3359 -4.7391,-24.8437 -1.71485,-8.5078 -3.98112,-20.3203 -5.03614,-26.25 -4.97447,-27.95848 -7.58511,-40.57517 -9.36347,-45.2517 l -0.98701,-2.59556 -5.19663,2.93278 c -3.61692,2.04131 -6.04436,2.80837 -7.98534,2.52356 -1.62021,-0.23784 -2.78865,0.0141 -2.78856,0.60019 3.1e-4,1.91803 2.70461,15.13547 3.56902,17.44369 0.47697,1.27364 1.15273,4.84704 1.50169,7.94074 1.25651,11.1396 10.76836,60.8942 13.78608,72.1124 l 0.98853,3.6747 1.73536,-3.8761 c 4.19045,-9.3596 12.16916,-2.9629 12.16916,9.7565 0,6.7272 -7.19751,11.1061 -9.84375,5.9888 -3.55086,-6.8666 -2.91547,0.6221 2.30676,27.1875 1.97655,10.0547 4.29161,22.0781 5.14457,26.7187 0.85295,4.6407 1.96382,10.336 2.46858,12.6563 0.50477,2.3203 1.7962,8.2266 2.86984,13.125 1.07363,4.8984 2.28271,10.8047 2.68682,13.125 0.40411,2.3203 1.84671,9.7031 3.2058,16.4062 2.86926,14.1516 4.48732,22.4297 7.05494,36.0938 1.01736,5.4141 2.51213,12.7969 3.32172,16.4062 0.80959,3.6094 2.31168,11.2032 3.33797,16.875 1.02629,5.6719 2.49133,13.0547 3.25564,16.4063 0.7643,3.3516 2.63999,12.4219 4.16818,20.1562 6.00631,30.3989 9.1833,45.1316 12.83744,59.5313 1.24305,4.8984 2.87347,11.8594 3.62316,15.4687 0.74968,3.6094 2.20577,10.3594 3.23577,15 1.02998,4.6407 2.72367,14.022 3.76374,20.8474 1.04007,6.8254 3.3968,20.5363 5.23717,30.4688 1.84036,9.9323 3.76054,20.5901 4.26707,23.6838 1.60082,9.7776 2.83399,11.4284 5.9584,7.9759 z m -79.02482,-411.7571 c -0.61875,-0.6187 -1.125,-2.2256 -1.125,-3.5708 0,-1.3452 -0.6194,-3.2647 -1.37644,-4.2657 -0.75703,-1.0008 -1.39303,-3.5072 -1.41333,-5.5697 -0.0203,-2.0625 -0.48406,-6.4922 -1.03062,-9.8438 -0.83472,-5.1187 -2.4007,-21.7588 -3.04161,-32.3203 -0.2446,-4.0307 2.41883,-4.2022 4.75668,-0.3061 1.57942,2.6321 1.86374,4.8483 1.90047,14.8139 0.0472,12.8178 1.40353,23.2775 3.58611,27.6563 3.65311,7.329 1.92639,17.5889 -2.25626,13.4062 z m -14.63092,-63.2648 c -1.33738,-1.4422 -2.43622,-3.2595 -2.4419,-4.0381 -0.006,-0.7787 -0.24444,-2.8924 -0.53059,-4.69708 -1.08286,-6.82941 7.11725,-14.60438 9.9064,-9.39281 5.93439,11.08849 0.27009,25.89719 -6.93391,18.12809 z M 33.021174,1432.9429 c 3.067964,-2.5816 5.653365,-9.4174 7.579822,-20.0411 0.573298,-3.1616 1.887078,-9.0003 2.919511,-12.9749 1.032434,-3.9747 3.083249,-12.9221 4.557367,-19.883 6.680689,-31.5469 9.775276,-45.3524 13.029046,-58.125 0.985154,-3.8672 2.7326,-12.0937 3.883215,-18.2812 1.150614,-6.1875 2.836439,-14.4141 3.746278,-18.2813 0.909839,-3.8672 2.366432,-10.1953 3.236873,-14.0625 0.870442,-3.8672 2.160331,-9.5625 2.866422,-12.6562 0.70609,-3.0938 2.817269,-12.7969 4.691507,-21.5625 1.874239,-8.7657 4.416044,-20.1563 5.648456,-25.3125 1.232411,-5.1563 3.079845,-13.3829 4.105408,-18.2813 2.622972,-12.5282 3.712453,-17.4556 5.285883,-23.9062 0.754612,-3.0938 1.780228,-7.7344 2.279147,-10.3125 0.498918,-2.5782 1.733606,-8.0625 2.743752,-12.1875 1.010139,-4.125 2.723609,-11.2969 3.807689,-15.9375 1.08408,-4.6407 3.22374,-13.711 4.75479,-20.1563 3.07728,-12.9546 8.26462,-37.078 9.06892,-42.1745 0.46484,-2.9454 0.3642,-3.1425 -1.01888,-1.9946 -0.84406,0.7005 -1.53466,2.1829 -1.53466,3.294 0,1.1112 -0.57891,2.8525 -1.28647,3.8696 -0.70755,1.0171 -1.58496,3.3258 -1.9498,5.1305 -0.36484,1.8047 -2.52811,8.9064 -4.80728,15.7817 -2.27918,6.8752 -4.14395,13.7585 -4.14395,15.2961 0,1.5375 -0.49574,3.717 -1.10165,4.8432 -0.60589,1.1263 -1.420449,3.5243 -1.810119,5.329 -0.389664,1.8047 -1.324811,6.0234 -2.078083,9.375 -0.753281,3.3516 -1.182956,6.4045 -0.954834,6.7843 0.228131,0.3798 -0.03741,2.2782 -0.590082,4.2188 -0.552675,1.9405 -1.839065,9.6453 -2.858656,17.1219 -2.937222,21.5385 -3.826873,24.8846 -9.578252,36.0257 -1.470985,2.8494 -1.864188,5.2579 -1.739114,10.6522 0.199088,8.5866 -1.129621,12.9329 -4.484015,14.6675 -2.901257,1.5003 -4.125695,6.8731 -5.722581,25.1105 -0.483974,5.5272 -1.524198,11.2953 -2.311607,12.818 -0.985358,1.9055 -1.397997,5.2381 -1.323689,10.6905 0.103449,7.5908 -1.882346,18.5164 -5.390067,29.6557 -0.718987,2.2833 -1.30725,5.0716 -1.30725,6.1962 0,1.1246 -1.418047,3.8368 -3.151215,6.027 -2.834659,3.5822 -3.158152,4.6078 -3.220279,10.21 -0.09539,8.6014 -4.494342,25.6468 -7.699358,29.834 -1.250389,1.6336 -1.480759,3.5144 -1.148302,9.375 0.328037,5.7827 -9.37e-4,8.5629 -1.557476,13.1613 -1.085353,3.2063 -1.97337,6.4671 -1.97337,7.2459 0,1.7389 -3.426493,12.987 -5.236669,17.1904 -0.729207,1.6933 -1.325831,4.9867 -1.325831,7.3186 0,3.0274 -1.340531,7.3188 -4.6875,15.0062 -6.591722,15.1399 -5.917545,20.3847 1.786953,13.9018 z m -7.339826,-15.0857 c 2.52807,-5.447 3.677873,-9.2192 3.677873,-12.0662 0,-2.278 1.090978,-6.9991 2.424395,-10.4913 6.518892,-17.0731 9.236898,-29.149 8.330374,-37.0113 -0.477678,-4.1429 -0.187654,-6.5892 1.286042,-10.8477 2.202209,-6.3634 7.645011,-28.302 7.650215,-30.836 0.002,-0.9444 1.265977,-4.2483 2.808974,-7.342 1.542997,-3.0938 2.807034,-6.4977 2.808974,-7.5643 0.002,-1.0666 0.643885,-4.0955 1.426548,-6.731 1.797617,-6.0533 5.106414,-24.1354 5.125241,-28.0088 0.0079,-1.6109 0.687616,-4.775 1.510635,-7.0312 0.82302,-2.2562 1.851648,-6.8444 2.285842,-10.196 1.766414,-13.6351 5.719097,-29.7168 8.410538,-34.2188 0.924776,-1.5468 2.340329,-5.3437 3.145673,-8.4375 4.361183,-16.7535 8.331335,-33.4223 9.043397,-37.9687 0.444163,-2.8359 1.662761,-9.1641 2.707995,-14.0625 1.045234,-4.8984 2.135716,-11.8594 2.423294,-15.4688 0.287577,-3.6093 1.112498,-8.4609 1.833159,-10.7812 0.720657,-2.3203 1.592701,-5.9063 1.93787,-7.9688 0.994078,-5.9399 7.061113,-27.5773 9.002543,-32.1064 0.97081,-2.2648 2.41787,-6.9326 3.21571,-10.3727 0.79783,-3.4402 2.44234,-8.3679 3.65448,-10.9504 3.04294,-6.4831 5.21199,-13.1812 5.25012,-16.2125 0.0176,-1.4 0.82696,-5.7095 1.79855,-9.5767 3.99494,-15.9008 5.52198,-23.4208 6.48092,-31.9156 0.55548,-4.9208 1.66584,-10.80579 2.46746,-13.07791 0.80162,-2.27203 1.86137,-9.00375 2.35499,-14.95931 0.49363,-5.95566 1.34635,-12.30497 1.89494,-14.10966 2.86538,-9.42619 6.70815,-36.63558 5.88789,-41.69023 -0.37628,-2.31872 0.2284,-5.61151 1.97353,-10.74694 1.38382,-4.07217 2.64211,-9.65454 2.79622,-12.40526 0.15409,-2.75073 1.15807,-7.79758 2.23105,-11.21523 1.07299,-3.41766 2.41004,-9.51516 2.97123,-13.55 0.98454,-7.07859 2.84958,-11.64234 4.75781,-11.64234 0.50374,0 0.91589,-1.74867 0.91589,-3.88593 0,-2.13726 1.86982,-11.73492 4.15514,-21.32812 2.28533,-9.59322 4.83473,-20.39533 5.66536,-24.0047 3.47254,-15.08952 3.96368,-16.9608 4.92122,-18.75 2.25748,-4.2182 4.94578,-14.18357 4.94578,-18.3337 0,-2.43666 0.83449,-6.26933 1.85441,-8.51705 1.01993,-2.24771 1.86368,-5.33264 1.875,-6.8554 0.0113,-1.52277 1.2481,-6.7962 2.74839,-11.71875 1.50029,-4.92255 3.21321,-13.16885 3.80649,-18.3251 0.59329,-5.15625 1.67934,-11.50004 2.41345,-14.09731 0.73412,-2.59727 2.15263,-9.34727 3.15224,-15 0.99962,-5.65273 2.5073,-12.17613 3.35039,-14.49644 3.15412,-8.68057 9.66724,-33.78636 12.03903,-46.40625 0.77526,-4.125 1.82673,-9.1875 2.33661,-11.25 0.50988,-2.0625 1.42343,-6.49219 2.03012,-9.84375 0.60669,-3.35156 1.91748,-7.94862 2.91285,-10.21568 1.68141,-3.82955 6.63654,-30.56721 8.43511,-45.51543 0.43096,-3.58181 1.2112,-7.58962 1.73387,-8.90625 1.48696,-3.74575 3.81043,-16.06222 3.81127,-20.20319 4.2e-4,-2.06075 0.99756,-6.91231 2.21585,-10.78125 3.03313,-9.63238 5.48099,-23.31593 4.78161,-26.7293 -0.3796,-1.85273 0.14915,-4.74653 1.5417,-8.4375 1.44426,-3.82803 2.05779,-7.30412 1.92588,-10.91151 -0.16542,-4.52369 0.16953,-5.72537 2.30233,-8.26007 2.36315,-2.80844 2.43109,-3.16267 1.2771,-6.65927 -1.83715,-5.56664 -3.15796,-4.50219 -5.01457,4.04132 -0.92443,4.25391 -2.45106,11.10938 -3.39251,15.23438 -0.94145,4.125 -2.82777,12.5625 -4.19182,18.75 -1.36404,6.1875 -3.26381,14.20312 -4.22169,17.8125 -0.95789,3.60937 -2.66708,11.625 -3.79821,17.8125 -1.82956,10.00796 -5.68502,27.13702 -12.66094,56.25 -1.23552,5.15625 -3.16699,13.38281 -4.29216,18.28125 -1.12517,4.89844 -3.20183,13.125 -4.61479,18.28125 -1.41296,5.15625 -3.05694,11.90625 -3.65329,15 -0.59634,3.09375 -1.90592,9.42187 -2.91018,14.0625 -1.00426,4.64062 -2.4706,11.60156 -3.25854,15.46875 -0.78795,3.86719 -2.08437,10.19531 -2.88095,14.0625 -0.79657,3.86719 -2.05776,10.19531 -2.80264,14.0625 -2.26054,11.7361 -4.99939,23.68432 -10.31519,45 -1.5492,6.21213 -9.95474,44.02967 -13.12755,59.0625 -1.25152,5.92969 -3.3187,15 -4.59374,20.15625 -2.28247,9.2303 -6.07822,27.27548 -8.51756,40.49292 -0.68445,3.70861 -1.87984,8.77111 -2.65643,11.25 -0.7766,2.47889 -2.12018,8.51489 -2.98574,13.41333 -0.86557,4.89844 -2.32445,12.07031 -3.24196,15.9375 -0.91752,3.86719 -2.36454,10.19531 -3.21561,14.0625 -2.80609,12.75066 -4.28682,19.11 -6.54878,28.125 -1.22907,4.89844 -3.33988,14.17969 -4.6907,20.625 -1.35082,6.44531 -3.06597,14.03906 -3.81145,16.875 -0.74548,2.83594 -2.45034,10.64058 -3.78856,17.34368 -1.33823,6.7032 -3.23238,15.5625 -4.20924,19.6875 -0.97685,4.125 -2.62573,11.7188 -3.66415,16.875 -1.03843,5.1563 -2.57522,12.3282 -3.41509,15.9375 -6.606756,28.3929 -9.767681,42.3013 -10.653167,46.875 -2.680057,13.8434 -6.685922,31.6041 -9.832388,43.5938 -0.744237,2.8359 -1.84889,7.8984 -2.454784,11.25 -0.605894,3.3516 -1.682238,8.2031 -2.391877,10.7812 -0.709638,2.5782 -2.504804,10.5938 -3.989259,17.8125 -1.484456,7.2188 -3.379203,15.8672 -4.210551,19.2188 -2.4509,9.8808 -6.869111,29.3553 -10.421878,45.9375 -1.822817,8.5078 -3.965641,17.6257 -4.761832,20.2622 -1.501758,4.9727 -4.207669,17.2669 -6.476386,29.4253 -0.721604,3.8672 -1.91362,8.7187 -2.648924,10.7812 -0.735305,2.0625 -1.645887,5.8351 -2.023515,8.3836 -0.377629,2.5484 -1.502882,7.8219 -2.500564,11.7188 -1.80171,7.0372 -4.812214,20.4867 -8.40605,37.5539 -1.031462,4.8984 -2.300844,10.5937 -2.82085,12.6562 -1.946299,7.7196 -3.791137,16.1598 -5.065086,23.1731 -0.722885,3.9795 -1.758308,8.065 -2.300942,9.0789 -1.320705,2.4678 -1.303044,7.898 0.02302,7.0785 0.555295,-0.3432 2.66467,-4.19 4.6875,-8.5484 z M 312.79213,1029.6087 c 17.75159,-7.4323 21.93845,-11.1604 6.93636,-6.1764 -5.27341,1.752 -11.6974,4.2366 -14.27552,5.5214 -2.57813,1.2848 -6.26953,2.9483 -8.20313,3.6965 -2.05389,0.7949 -3.51562,1.9914 -3.51562,2.8778 0,1.9767 0.77008,1.7375 19.05791,-5.9193 z m -28.7445,1.1056 c 1.67076,-3.2991 2.84505,-4.1633 9.68659,-7.1283 6.55481,-2.8408 8.65101,-3.582 12.68846,-4.4868 2.2614,-0.5068 6.42177,-1.9781 9.24527,-3.2696 2.82349,-1.2915 5.69425,-2.3482 6.37945,-2.3482 0.68521,0 2.71615,-0.7807 4.5132,-1.7347 1.79705,-0.9541 6.2205,-2.6959 9.82987,-3.8707 3.60937,-1.1747 8.88281,-3.1703 11.71875,-4.4347 2.83594,-1.2643 6,-2.6281 7.03125,-3.0306 1.03125,-0.4026 3.35325,-1.36687 5.16001,-2.14294 1.80675,-0.77606 4.64957,-1.71075 6.31737,-2.07712 1.6678,-0.36628 3.27304,-1.05544 3.5672,-1.53131 0.29416,-0.47597 1.21457,-0.86541 2.04535,-0.86541 1.71718,0 14.05676,-5.39953 16.19132,-7.08506 0.77344,-0.61069 3.9375,-2.01938 7.03125,-3.13041 3.09375,-1.11103 6.46875,-2.41181 7.5,-2.8905 1.03125,-0.47878 5.46094,-2.19637 9.84375,-3.81694 4.38281,-1.62065 9.86719,-3.72703 12.1875,-4.68093 13.40528,-5.51119 21.45951,-8.66297 24.23097,-9.48207 1.72547,-0.5099 4.88953,-1.89909 7.03125,-3.08709 2.14172,-1.188 5.25494,-2.45381 6.91828,-2.81306 1.66334,-0.35916 5.47271,-1.839 8.46524,-3.28866 2.99254,-1.44956 7.3446,-3.2819 9.67125,-4.07184 2.32666,-0.78994 6.28922,-2.53097 8.80571,-3.86897 2.51647,-1.338 6.50662,-3.03038 8.86698,-3.76069 2.36037,-0.73031 9.98688,-3.71119 16.94782,-6.62418 6.96094,-2.91297 13.92187,-5.67838 15.46875,-6.14534 1.54687,-0.46697 4.92187,-1.86032 7.5,-3.09633 2.57812,-1.23601 7.97532,-3.6474 11.99377,-5.35864 15.48208,-6.593 9.36946,-7.21747 -7.05759,-0.72101 -5.01947,1.98508 -9.35208,3.60922 -9.628,3.60922 -0.27593,0 -2.07534,0.98125 -3.99868,2.18055 -1.92335,1.19931 -5.81731,2.91692 -8.65325,3.81692 -2.83594,0.89999 -8.32031,3.13019 -12.1875,4.956 -10.64048,5.02369 -12.1944,5.65162 -18.28125,7.38759 -3.09375,0.88238 -6.15869,2.0251 -6.81097,2.53941 -0.65229,0.51422 -5.08198,2.32116 -9.84375,4.01531 -4.76178,1.69416 -10.34528,3.72806 -12.40778,4.51978 -2.0625,0.79182 -4.49671,1.45819 -5.40936,1.48078 -0.91264,0.0225 -5.42615,1.93294 -10.03002,4.24519 -4.60386,2.31216 -10.35328,4.64831 -12.77648,5.19131 -2.42321,0.5431 -5.56856,1.81538 -6.9897,2.82732 -1.42114,1.01193 -3.26276,1.83984 -4.09251,1.83984 -0.82974,0 -2.24118,0.41297 -3.13653,0.91763 -2.09187,1.17928 -10.4116,4.49521 -27.35053,10.90096 -7.44431,2.81522 -13.9867,5.49329 -14.53864,5.95135 -1.03347,0.85772 -6.3851,2.91187 -13.45597,5.16487 -2.21635,0.70622 -5.10034,1.98544 -6.40884,2.84288 -1.30851,0.85734 -4.55763,2.19881 -7.22026,2.98097 -2.66264,0.78225 -6.31772,2.17922 -8.12241,3.10442 -1.80469,0.9251 -5.8125,2.7287 -8.90625,4.0077 -5.43158,2.2457 -8.401,3.3944 -22.5,8.7043 -14.28836,5.3813 -31.16541,14.3377 -31.80281,16.8773 -1.29084,5.1431 2.26837,5.7252 4.77247,0.7805 z m -18.64743,1.3588 c -0.20089,-0.6027 -2.00104,-1.6621 -4.00033,-2.3543 -4.13972,-1.4332 -7.04065,-3.7464 -7.04065,-5.6142 0,-0.7005 -0.51219,-2.0938 -1.13822,-3.0962 -2.17771,-3.4871 3.66747,-7.9365 14.9972,-11.416 3.4635,-1.0637 7.35196,-2.5005 8.64102,-3.193 1.28906,-0.6924 4.34766,-2.1007 6.79687,-3.1295 3.85457,-1.6191 5.99606,-3.85098 3.69507,-3.85098 -1.18862,0 -16.17218,5.53598 -20.33569,7.51358 -3.2806,1.5581 -10.59152,3.8446 -17.06469,5.3369 -2.85639,0.6585 -2.08076,11.7873 1.03709,14.8801 1.0808,1.0721 2.69926,2.8651 3.59655,3.9844 1.8336,2.2872 11.54625,3.1306 10.81578,0.9392 z m 135.18753,-11.0516 c 1.77105,-3.3092 1.15254,-10.0231 -1.17238,-12.7259 -4.31991,-5.0222 -13.33315,1.3471 -11.61178,8.2056 1.55805,6.2077 10.23846,9.277 12.78416,4.5203 z m -58.10351,-3.2724 c 3.86719,-1.2489 9.5625,-3.5055 12.65625,-5.0146 3.09375,-1.5091 6.67969,-3.0603 7.96875,-3.4472 1.28906,-0.3868 5.71875,-2.111 9.84375,-3.8315 4.125,-1.7205 12.5625,-5.0638 18.75,-7.42944 6.1875,-2.36578 12.63541,-4.91869 14.32868,-5.67319 1.69328,-0.7545 3.73441,-1.37175 4.53586,-1.37175 0.80145,0 4.19158,-1.26562 7.53361,-2.8125 3.34203,-1.54687 6.29963,-2.8125 6.57245,-2.8125 0.27282,0 1.82542,-0.61078 3.45022,-1.35722 5.44125,-2.49984 24.25714,-9.89278 25.17821,-9.89278 0.5006,0 3.51337,-1.20487 6.69503,-2.6775 3.18166,-1.47272 6.83584,-3.00131 8.12039,-3.39694 2.33082,-0.71784 6.76417,-2.71078 23.25129,-10.45228 4.80052,-2.25403 8.92219,-4.09828 9.15925,-4.09828 0.23706,0 2.05937,-1.02797 4.04957,-2.28431 1.99021,-1.25635 6.09511,-3.1185 9.122,-4.13813 4.93713,-1.66303 10.47094,-4.22212 14.40969,-6.66365 0.77344,-0.47944 5.20312,-2.00588 9.84375,-3.39213 4.64062,-1.38625 9.37305,-3.09808 10.51649,-3.80407 1.14345,-0.70599 4.23023,-2.13156 6.85954,-3.16793 2.6293,-1.03638 7.60001,-3.16732 11.04601,-4.73542 7.49707,-3.41153 8.52429,-3.8486 15.17171,-6.45533 2.83594,-1.11209 6,-2.4067 7.03125,-2.8769 1.03125,-0.4702 4.40625,-1.70415 7.5,-2.74211 10.48631,-3.51819 13.72204,-4.77344 18.35017,-7.11869 5.52644,-2.80046 6.14408,-4.67869 1.23574,-3.75788 -3.36832,0.63191 -4.80327,1.217 -18.18319,7.41417 -3.86913,1.79206 -8.29882,3.55276 -9.84375,3.91266 -3.2468,0.75638 -12.50791,4.52044 -17.46786,7.0996 -1.8749,0.97494 -4.08049,1.77262 -4.90132,1.77262 -0.82082,0 -4.56026,1.42203 -8.30986,3.16007 -3.74958,1.73804 -8.50493,3.69474 -10.56743,4.34824 -2.0625,0.65349 -6.49219,2.54545 -9.84375,4.20435 -3.35156,1.6589 -7.26514,3.29897 -8.69684,3.64462 -3.47515,0.83897 -12.44616,4.97935 -16.95223,7.82391 -1.99936,1.26215 -5.58921,2.84578 -7.97744,3.51919 -4.18421,1.17984 -12.59641,4.5629 -21.92039,8.8155 -2.44923,1.11703 -5.72754,2.2859 -7.28514,2.59743 -1.55759,0.31153 -3.05903,0.93375 -3.33655,1.38282 -0.27751,0.44896 -1.32342,0.81637 -2.32424,0.81637 -1.00082,0 -1.81967,0.37491 -1.81967,0.83316 0,0.45825 -1.57423,1.12847 -3.4983,1.4895 -1.92406,0.36093 -6.03734,1.83497 -9.14062,3.27562 -3.10328,1.44066 -7.09581,2.93138 -8.8723,3.31275 -2.94457,0.63206 -9.2885,3.57459 -27.70753,12.85144 -8.73821,4.401 -12.059,5.84081 -18.75,8.12915 -7.33453,2.50838 -18.74611,6.75076 -28.125,10.45566 -4.125,1.6295 -9.1875,3.5732 -11.25,4.3194 -2.0625,0.7463 -5.53837,2.1813 -7.72416,3.1888 -2.18579,1.0077 -4.29516,1.8463 -4.6875,1.8638 -0.39234,0.018 -2.40084,0.8469 -4.46334,1.8432 -2.0625,0.9963 -4.30507,1.8257 -4.98351,1.8432 -2.61702,0.067 -5.20132,2.0528 -3.81502,2.9307 1.70556,1.0801 1.21699,1.1563 9.26728,-1.4437 z m -12.65625,-21.55912 c 5.15625,-1.76128 12.32812,-4.27772 15.9375,-5.592 3.60937,-1.31419 7.43172,-2.3984 8.49412,-2.40928 1.06238,-0.0113 4.64832,-1.10869 7.96875,-2.43956 3.32041,-1.33088 8.56838,-3.26981 11.66213,-4.30875 3.09375,-1.03894 7.94531,-2.955 10.78125,-4.25813 2.83594,-1.30303 7.6875,-3.33356 10.78125,-4.51228 3.09375,-1.17872 10.05469,-3.91593 15.46875,-6.08268 5.41406,-2.16685 12.50586,-4.9155 15.75955,-6.10819 3.25369,-1.19269 6.83963,-2.74613 7.96875,-3.45216 1.12912,-0.70603 5.21701,-2.4734 9.0842,-3.92756 3.86719,-1.45416 10.06006,-3.85303 13.76194,-5.33091 3.70188,-1.47778 8.76438,-3.13987 11.25,-3.69347 2.48562,-0.55359 7.2615,-2.30465 10.61306,-3.89137 7.1886,-3.40311 16.11064,-7.16889 27.37975,-11.55634 4.48856,-1.74755 11.70923,-4.84748 16.04595,-6.88875 4.33672,-2.04126 11.21113,-4.82041 15.27649,-6.17586 11.19983,-3.73422 16.51352,-6.94645 17.43185,-10.53792 0.4202,-1.64333 1.8704,-3.85817 3.22266,-4.92187 1.35226,-1.06369 2.08536,-1.96626 1.62911,-2.00571 -5.30864,-0.45902 -5.30656,-0.45519 -5.65123,-10.47108 -0.5134,-14.9196 -1.21747,-22.29091 -2.32717,-24.3644 -0.58911,-1.10078 -1.2054,-6.88056 -1.36952,-12.84397 -0.38248,-13.89727 -1.07141,-22.5034 -2.78168,-34.74882 -0.75616,-5.41406 -1.77697,-14.48437 -2.26844,-20.15625 -0.49149,-5.67187 -1.72535,-17.27344 -2.74192,-25.78125 -2.21851,-18.56692 -4.01124,-38.09348 -4.41799,-48.12093 -0.16374,-4.03682 -0.75099,-9.73213 -1.305,-12.65625 -1.03813,-5.47939 -1.70052,-11.69483 -4.1634,-39.06657 -0.78872,-8.76562 -2.27363,-23.74219 -3.29981,-33.28125 -1.02618,-9.53906 -2.33318,-23.58222 -2.90445,-31.20701 -0.57128,-7.6248 -1.40507,-17.11699 -1.85289,-21.09375 -0.44782,-3.97677 -1.29429,-12.50393 -1.88104,-18.94924 -0.58676,-6.44531 -2.1163,-21 -3.39897,-32.34375 -2.73219,-24.16283 -2.10227,-18.42091 -6.32517,-57.65625 -1.85914,-17.27344 -3.78894,-33.30469 -4.28844,-35.625 -1.71691,-7.97545 -5.0067,-40.53307 -6.48899,-64.21875 -0.45176,-7.21875 -1.6687,-20.92969 -2.70431,-30.46875 -1.03561,-9.53906 -2.3603,-22.40625 -2.94376,-28.59375 -1.77449,-18.81821 -4.98161,-41.18758 -6.06613,-42.31063 -1.22034,-1.26369 -11.6729,-4.63494 -16.96175,-5.47063 -4.91092,-0.77599 -21.94834,-4.53924 -33.75,-7.45475 -5.15625,-1.27381 -12.75,-2.98629 -16.875,-3.80552 -4.125,-0.81922 -11.5348,-2.52826 -16.46622,-3.79785 -4.93143,-1.26959 -10.83768,-2.69034 -13.125,-3.15724 -2.28733,-0.46689 -9.22128,-2.14125 -15.40878,-3.72081 -12.27128,-3.13263 -62.67252,-14.96324 -78.015,-18.31236 -5.26763,-1.14987 -10.33013,-2.76651 -11.25,-3.59254 -1.01959,-0.91557 -2.61952,-1.31823 -4.09837,-1.03146 -1.33423,0.25872 -9.33785,-1.24408 -17.78583,-3.33956 -17.20791,-4.26836 -17.5112,-4.21317 -15.50604,2.8215 1.57922,5.54035 3.68706,24.90028 5.24477,48.17185 0.55223,8.25 1.39423,17.10938 1.87112,19.6875 0.47689,2.57813 1.1376,9.53906 1.46825,15.46875 0.33063,5.92969 0.95341,12.46875 1.38392,14.53125 0.43051,2.0625 1.46627,11.97656 2.30168,22.03125 0.83541,10.05469 2.14041,23.97656 2.9,30.9375 1.86083,17.05275 3.81228,36.63814 5.51125,55.3125 0.77403,8.50781 2.23529,22.64063 3.24725,31.40625 1.01195,8.76563 2.04497,19.10156 2.29557,22.96875 0.25061,3.86719 1.08431,11.88281 1.85269,17.8125 0.76836,5.92969 1.87707,16.89844 2.46379,24.375 0.58673,7.47656 1.48234,16.75781 1.99024,20.625 0.5079,3.86719 1.5345,13.35938 2.28133,21.09375 1.45632,15.08209 2.67487,26.83901 4.17818,40.3125 0.51777,4.64063 1.36884,13.28906 1.89126,19.21875 0.52242,5.92969 1.11522,11.625 1.31734,12.65625 0.64981,3.31553 1.44656,10.6575 4.37472,40.3125 1.57831,15.98438 3.23332,31.99676 3.67779,35.58308 0.44446,3.58631 0.61201,6.83786 0.37234,7.22566 -0.40873,0.66135 0.49585,7.31462 2.4648,18.12876 0.79245,4.35242 2.13841,18.28913 3.25108,33.66333 0.25778,3.56171 0.88723,9.04609 1.39879,12.1875 0.51157,3.14142 1.37245,11.61792 1.91307,18.83667 0.54063,7.21875 1.5825,17.13281 2.31527,22.03125 0.73278,4.89844 1.39672,11.85938 1.47542,15.46875 0.0788,3.60938 0.78414,8.88281 1.5676,11.71875 0.78347,2.83594 1.53434,9.375 1.6686,14.53125 0.13426,5.15625 0.90912,15.28125 1.7219,22.5 2.46937,21.9316 6.15536,55.67184 7.22051,66.09375 0.55333,5.41406 1.60847,13.64063 2.34474,18.28125 2.53311,15.96591 -1.17326,25.59623 -5.37698,13.97109 l -1.15488,-3.19378 -2.57061,2.81447 c -1.41384,1.548 -3.01628,2.81447 -3.56096,2.81447 -1.51637,0 -1.17758,2.92669 0.5612,4.84809 1.93925,2.14285 0.98383,2.26294 12.0422,-1.51453 z m -17.12951,-16.99556 c 2.1419,-4.01428 3.94789,-5.28516 7.00174,-4.92722 4.14534,0.48581 3.9284,-6.88856 -1.60436,-54.53578 -0.9695,-8.34916 -3.06215,-27.68347 -4.71837,-43.59375 -0.53676,-5.15625 -1.5664,-14.22656 -2.28811,-20.15625 -0.7217,-5.92969 -1.56171,-13.94531 -1.86667,-17.8125 -0.30496,-3.86719 -0.95136,-9.5625 -1.43644,-12.65625 -0.48507,-3.09375 -1.74809,-14.90625 -2.80671,-26.25 -1.05861,-11.34375 -2.3385,-23.57812 -2.84419,-27.1875 -0.50568,-3.60937 -1.35402,-10.99219 -1.88519,-16.40625 -0.53117,-5.41406 -1.35452,-12.16406 -1.82969,-15 -0.47516,-2.83594 -1.52565,-14.4375 -2.33441,-25.78125 -0.80876,-11.34375 -1.88724,-22.94531 -2.39662,-25.78125 -0.86535,-4.81776 -2.55621,-19.70887 -4.73709,-41.71875 -3.1438,-31.72786 -6.89043,-66.0961 -10.16898,-93.28125 -0.52857,-4.38281 -1.40513,-13.875 -1.94791,-21.09375 -0.54277,-7.21875 -1.36909,-15.65625 -1.83628,-18.75 -0.46717,-3.09375 -1.12015,-9 -1.45106,-13.125 -0.33091,-4.125 -1.42038,-14.88281 -2.42105,-23.90625 -1.00066,-9.02344 -2.23788,-21.46875 -2.74938,-27.65625 -0.5115,-6.1875 -1.34409,-14.41406 -1.8502,-18.28125 -0.50611,-3.86719 -1.36546,-12.30469 -1.90965,-18.75 -0.5442,-6.44531 -1.60188,-17.20312 -2.35039,-23.90625 -0.74851,-6.70312 -1.57044,-15.35156 -1.82651,-19.21875 -0.25606,-3.86719 -0.90132,-10.61719 -1.4339,-15 -1.86478,-15.34602 -4.73505,-41.8434 -6.04238,-55.78125 -2.68406,-28.61563 -8.66243,-78.98438 -9.54415,-80.41102 -0.66924,-1.08286 -7.68035,-0.23986 -14.26277,1.7149 -4.57433,1.35843 -4.79852,1.57662 -4.79852,4.66994 0,3.69502 1.0726,4.06552 3.96597,1.36993 2.97275,-2.76952 5.75473,-2.3278 9.06191,1.43888 6.4974,7.40012 0.57921,15.16451 -8.57476,11.24966 -1.95369,-0.83553 -2.24906,4.13657 -0.75457,12.70198 0.48732,2.79303 1.56744,11.19542 2.40025,18.67198 3.14803,28.26116 2.92475,27.50125 7.05853,24.0229 6.1698,-5.19153 10.58933,-1.98417 9.39352,6.81712 -0.81106,5.96945 -2.71927,7.80501 -7.74529,7.45036 -4.57645,-0.32292 -4.4556,-0.63691 -3.48445,9.05337 0.46507,4.64063 1.46511,14.76563 2.2223,22.5 2.971,30.34754 3.50724,35.20671 4.15086,37.61331 l 0.66712,2.49442 1.62216,-2.47574 c 2.43956,-3.72322 6.30361,-3.36437 9.54595,0.88654 5.83107,7.64494 -1.92455,18.60647 -8.73153,12.34085 l -2.29164,-2.10938 0.66174,10.20423 c 0.36395,5.61233 1.05158,11.22964 1.52808,12.4829 0.47649,1.25328 0.87474,4.677 0.88499,7.60828 0.0102,2.93127 0.63468,11.0249 1.38761,17.98584 0.75293,6.96094 1.37737,14.6327 1.38761,17.04834 0.0102,2.41566 0.47042,5.57972 1.02259,7.03125 l 1.00395,2.63916 2.51167,-3.05532 c 4.81147,-5.85292 10.48043,-3.67532 10.48043,4.0258 0,8.05634 -3.21131,10.51794 -9.02997,6.92181 l -3.15753,-1.95146 0,4.3698 c 0,4.35899 1.07183,15.79472 2.81198,30.00187 0.50524,4.125 1.60092,14.44667 2.43483,22.93704 0.83392,8.49038 1.89297,16.42799 2.35345,17.63916 0.46048,1.21117 0.83724,3.67611 0.83724,5.47766 0,1.94497 0.38083,3.04018 0.9375,2.69614 0.51562,-0.31867 0.9375,-1.38395 0.9375,-2.36727 0,-8.62507 8.40911,-11.66732 11.29184,-4.08517 3.71199,9.76329 -4.26761,18.17808 -10.34155,10.90557 l -2.93622,-3.51563 0.60848,10.3125 c 0.33466,5.67188 0.98046,11.76336 1.43509,13.53663 0.45463,1.77327 0.58754,4.17665 0.29535,5.34084 -0.29219,1.16419 -0.0901,3.5102 0.44901,5.21336 0.53916,1.70317 1.18923,5.62792 1.44461,8.72167 0.25537,3.09375 1.14953,11.53026 1.98701,18.7478 1.43766,12.39005 2.15205,18.79405 2.27486,20.39283 0.11779,1.53317 1.54187,0.54786 3.05729,-2.1153 3.01992,-5.30715 11.99673,-3.06695 11.99673,2.99384 0,7.35988 -5.04315,12.41301 -10.37858,10.39911 l -2.74642,-1.03666 0.0254,4.37169 c 0.014,2.40443 0.88057,12.59825 1.92581,22.65294 1.04523,10.05469 2.26256,22.5 2.70518,27.65625 0.44262,5.15625 1.46015,13.59375 2.26117,18.75 0.80102,5.15625 2.75894,22.03125 4.35094,37.5 1.59199,15.46875 3.30517,30.02344 3.80706,32.34375 0.50189,2.32031 1.55757,10.75781 2.34596,18.75 0.78839,7.99219 1.84904,18.53906 2.35702,23.4375 0.50797,4.89844 1.31752,13.33594 1.79902,18.75 1.88265,21.16931 3.73892,37.49645 5.59581,49.21875 0.49007,3.09375 1.52917,12.58594 2.3091,21.09375 2.68059,29.24091 3.30602,34.88231 4.71278,42.50991 0.77561,4.20553 1.65334,9.33384 1.95052,11.39634 0.29717,2.0625 1.00828,5.4375 1.58025,7.5 0.57196,2.0625 0.93757,4.32075 0.81245,5.01844 -0.12512,0.69759 0.0881,1.96322 0.47392,2.8125 0.47125,1.03734 0.89024,0.009 1.27682,-3.14344 0.31647,-2.57813 1.26711,-5.98388 2.11253,-7.56825 z m -7.09569,-60.79253 c -1.46448,-0.64748 -3.04005,-1.77337 -3.50126,-2.50198 -3.68376,-5.81941 4.35326,-14.6722 8.64988,-9.52786 6.34277,7.59418 2.91798,15.59627 -5.14862,12.02984 z M 293.33244,830.1332 c -2.95948,-2.95946 -0.83142,-13.67794 2.90987,-14.65632 4.61361,-1.20648 8.46959,3.38359 7.44237,8.85921 -1.15231,6.14231 -6.82847,9.32089 -10.35224,5.79711 z m -8.90518,-90.05946 c -4.63857,-5.89698 1.22049,-17.7291 7.19564,-14.53129 2.68224,1.43548 5.4111,10.08179 3.83857,12.16235 -3.99147,5.28099 -8.05702,6.15382 -11.03421,2.36894 z M 140.00859,966.13767 c 3.51958,-14.85122 4.07929,-17.29584 6.54678,-28.59375 1.06983,-4.89844 2.97774,-13.33594 4.23979,-18.75 1.26206,-5.41406 3.13283,-13.85156 4.15729,-18.75 1.02445,-4.89844 3.80506,-17.55469 6.17912,-28.125 5.54409,-24.68463 9.58397,-43.29166 10.68614,-49.21875 0.47941,-2.57813 1.53658,-7.00781 2.34927,-9.84375 1.59088,-5.55149 5.74505,-24.69906 7.01715,-32.34375 0.42901,-2.57813 1.4462,-7.00781 2.26042,-9.84375 0.81422,-2.83594 2.15218,-8.53125 2.97324,-12.65625 0.82106,-4.125 2.06522,-9.60938 2.76478,-12.1875 0.69957,-2.57813 1.94285,-7.85156 2.76284,-11.71875 0.81999,-3.86719 2.52327,-11.46094 3.78505,-16.875 1.26178,-5.41406 2.95672,-13.64063 3.76652,-18.28125 1.50289,-8.61233 2.42678,-12.91193 4.73402,-22.03125 0.71752,-2.83594 1.75836,-8.10938 2.313,-11.71875 0.55464,-3.60938 1.24922,-7.35361 1.54351,-8.32053 0.34789,-1.14297 0.17196,-1.5336 -0.50286,-1.11654 -0.57086,0.35281 -1.03793,1.79783 -1.03793,3.21115 0,1.41332 -0.4145,2.98417 -0.9211,3.49077 -0.50661,0.50661 -2.15751,5.75895 -3.66868,11.67188 -1.51117,5.91292 -3.83886,14.07415 -5.17265,18.13606 -1.33379,4.06191 -2.42507,9.30662 -2.42507,11.65491 0,2.34829 -0.80787,7.46241 -1.79528,11.36471 -0.9874,3.9023 -2.48033,10.89196 -3.31762,15.53259 -0.83728,4.64062 -1.94811,10.75781 -2.46848,13.59375 -0.52039,2.83594 -1.95062,8.53125 -3.1783,12.65625 -2.80493,9.4246 -4.92987,19.19872 -5.54008,25.48276 -0.25944,2.67176 -1.30169,6.48464 -2.3161,8.47306 -1.01442,1.98843 -2.73783,7.37716 -3.82981,11.97497 -1.09198,4.59782 -2.65274,10.27713 -3.46837,12.62069 -0.81562,2.34356 -1.61301,5.73758 -1.77197,7.54227 -0.78463,8.90809 -9.13282,38.83512 -11.6375,41.71875 -1.15436,1.329 -1.92921,4.878 -2.66088,12.1875 -0.56775,5.67187 -1.74081,12 -2.60679,14.0625 -0.86599,2.0625 -1.93672,6.62346 -2.37942,10.13546 -0.44268,3.51201 -1.65696,8.31173 -2.69839,10.66605 -1.08308,2.44846 -1.90047,6.33618 -1.90976,9.08329 -0.0258,7.61181 -1.75612,22.07792 -2.89552,24.20698 -0.57197,1.06866 -1.18579,5.15559 -1.36405,9.08194 -0.17825,3.92634 -0.76899,8.61534 -1.31274,10.42003 -0.54376,1.80469 -1.18954,6.86719 -1.43507,11.25 -0.52338,9.34266 -0.0516,8.24634 4.2355,-9.84375 z M 582.48161,943.1752 c 1.57338,-3.79847 0.12714,-12.5226 -2.14859,-12.96086 -4.61961,-0.88966 -11.65782,11.18767 -7.92693,13.60239 5.09387,3.29682 8.53497,3.07772 10.07552,-0.64153 z M 224.72195,580.12204 c 0.76782,-2.70703 2.0726,-8.50781 2.89952,-12.89062 0.8269,-4.38281 1.9585,-9.86719 2.51466,-12.1875 2.07812,-8.66997 3.35498,-15 3.02571,-15 -0.82647,0 -3.24389,7.25063 -4.58965,13.76586 -0.80769,3.91026 -1.94035,7.99118 -2.51702,9.06871 -0.57668,1.07752 -1.408,4.92352 -1.84738,8.54666 -0.43937,3.62314 -1.05308,8.16955 -1.36379,10.10314 -0.82148,5.1123 0.25839,4.30366 1.87795,-1.40625 z M 369.1785,229.5206 c -0.37252,-3.20969 -1.21196,-6.69016 -1.86543,-7.73437 -0.65345,-1.04421 -1.46334,-3.85389 -1.79973,-6.24371 -0.7905,-5.61596 -4.27912,-9.40921 -4.27912,-4.6528 0,1.65627 0.40737,4.78026 0.90527,6.94218 0.4979,2.16192 1.3715,6.35627 1.94134,9.32077 1.82947,9.51761 6.161,11.52966 5.09767,2.36793 z m 9.28922,-6.11731 c -1.5668,-11.56712 -3.56036,-19.88372 -7.35984,-30.70312 -1.81074,-5.15625 -3.29651,-10.58026 -3.30171,-12.05336 -0.006,-1.4731 -0.64162,-5.48091 -1.41427,-8.90625 -0.77265,-3.42534 -2.6951,-12.31875 -4.27212,-19.76314 -1.57701,-7.44439 -3.09667,-13.9064 -3.37703,-14.36002 -0.45602,-0.73786 -1.43898,-7.56867 -4.08025,-28.35473 -1.27214,-10.011271 -4.54279,-30.668252 -5.24016,-33.096064 -0.43772,-1.523863 -1.20433,-2.075186 -2.6072,-1.875 -2.49965,0.356696 -2.63599,6.401015 -0.20499,9.087252 1.2993,1.435708 1.4063,2.425034 0.6314,5.837497 -0.72964,3.213074 -0.55215,5.846041 0.81416,12.077565 0.96096,4.38281 2.23881,13.24219 2.83967,19.6875 0.60084,6.44531 1.66572,13.82812 2.36638,16.40625 0.70067,2.57812 1.57757,6.79687 1.94867,9.375 0.37111,2.57812 1.4564,6.51545 2.41176,8.7496 0.95537,2.23415 1.73703,5.4831 1.73703,7.21989 0,4.80469 2.4711,13.26162 4.85207,16.60537 1.76869,2.4839 2.13891,4.25889 2.194,10.51913 0.0644,7.31478 3.01802,19.56537 6.56243,27.21851 0.71641,1.54688 1.78772,4.71094 2.38068,7.03125 2.6387,10.3253 4.55464,9.89342 3.11932,-0.70312 z m -34.1085,-0.48337 c 0,-8.39918 -4.09934,-15.63821 -6.39465,-11.29235 -4.13568,7.83035 -4.07157,15.69487 0.13461,16.51364 6.17615,1.20227 6.26004,1.13231 6.26004,-5.22129 z m -25.74381,-5.81976 c 0.35261,-2.82219 0.36619,-11.36516 0.0302,-18.98437 -0.33603,-7.61921 -0.76785,-18.07187 -0.95961,-23.22812 -0.19177,-5.15625 -1.0125,-12.11719 -1.82386,-15.46875 -0.81136,-3.35156 -1.5127,-8.625 -1.55854,-11.71875 -0.12623,-8.51854 -1.23386,-14.76119 -2.0662,-11.6451 -1.35438,5.07049 -7.25317,5.18919 -7.25317,0.14597 0,-5.22957 3.33503,-7.35919 6.72306,-4.29307 2.01338,1.82209 2.5996,-3.77088 0.75625,-7.21522 -0.52702,-0.98472 -1.15425,-7.60151 -1.39386,-14.704 -0.47972,-14.219638 -1.45897,-19.84854 -3.66809,-21.084826 -2.7305,-1.528069 -3.62524,-4.40146 -2.09689,-6.734025 0.8979,-1.370371 1.09284,-2.594718 0.54974,-3.452758 -0.46283,-0.731209 -0.84796,-2.675666 -0.85586,-4.321017 -0.025,-5.220202 -1.6431,-4.230221 -2.23037,1.364621 -0.31042,2.957309 -0.82936,6.964584 -1.15321,8.905055 -0.55542,3.327936 -0.4189,3.587367 2.40593,4.572106 2.46513,0.859349 2.88368,1.395981 2.36663,3.034371 -0.34546,1.094717 -0.94319,3.76091 -1.32827,5.924875 -0.38509,2.163968 -1.1362,4.484278 -1.66912,5.156248 -3.15741,3.98121 -2.26998,17.27464 1.24235,18.61001 2.87371,1.09259 2.8284,3.44363 -0.12579,6.52714 -4.36727,4.55845 -4.59401,34.67837 -0.26105,34.67837 0.56397,0 0.65977,-2.96633 0.25338,-7.84513 -0.61787,-7.41734 -0.5399,-7.92471 1.42971,-9.30429 3.58856,-2.51352 4.81204,-1.10388 4.61553,5.31782 -0.0966,3.15582 0.42476,8.48004 1.15851,11.8316 0.9563,4.36815 1.12978,8.21756 0.61261,13.59375 -0.95384,9.91572 -0.9886,12.50829 -0.21887,16.32463 0.47752,2.36764 0.26675,3.47645 -0.81059,4.26421 -1.30937,0.95744 -1.31357,1.62615 -0.0418,6.64413 0.77777,3.06874 1.74588,7.96314 2.15135,10.87644 1.28688,9.24627 4.18829,10.48472 5.2199,2.22808 z m 11.56186,-16.9139 c 3.55335,-8.2083 3.76857,-13.1666 0.60596,-13.96036 -3.9703,-0.99648 -5.17401,0.72728 -5.17401,7.40937 0,12.26546 1.29211,14.11846 4.56805,6.55099 z m 3.4008,-34.47848 c 2.28655,-5.71463 2.13582,-15.95942 -0.32385,-22.01183 -1.10456,-2.71795 -2.27147,-7.35857 -2.59313,-10.3125 -0.32167,-2.95393 -1.58993,-9.23109 -2.81836,-13.94923 -1.22843,-4.71815 -2.23808,-9.99159 -2.24365,-11.71875 -0.006,-1.72717 -0.65704,-5.24967 -1.44767,-7.827799 -2.27657,-7.423532 -3.71592,-36.94681 -1.89027,-38.772459 2.87282,-2.872823 4.14498,3.083073 4.2297,19.802286 0.0531,10.472493 0.198,11.28164 2.86838,16.013307 2.12576,3.766635 2.8125,6.174115 2.8125,9.859655 0,2.6819 0.62919,6.38204 1.3982,8.22254 0.76901,1.8405 1.3694,4.67461 1.3342,6.29802 -0.12848,5.92538 1.6488,15.23552 3.63848,19.05992 2.95013,5.67046 4.19714,6.05544 3.56706,1.10121 -0.2857,-2.24646 -0.96397,-7.88135 -1.50724,-12.52198 -0.54327,-4.64062 -1.38211,-11.60156 -1.86407,-15.46875 -0.91526,-7.34377 -1.94117,-18.408018 -4.25949,-45.937499 -3.53782,-42.010758 -4.9261,-46.84582 -15.38131,-53.569597 -7.67557,-4.9361863 -10.0334,-3.638094 -8.16288,4.49404 1.35128,5.874701 1.21569,5.796364 7.76178,4.484255 7.66663,-1.53671 13.11135,18.774467 6.8262,25.464702 -3.45191,3.674391 -8.42432,2.891988 -10.79848,-1.69913 -0.79238,-1.532308 -1.59574,-2.630982 -1.78522,-2.441499 -0.43243,0.43243 1.9873,31.47973 3.23817,41.548479 0.51245,4.125 1.37697,14.039062 1.92115,22.031249 3.54724,52.09743 9.25181,73.41666 15.4798,57.85136 z"
     id="path4183"
     inkscape:connector-curvature="0" />
</svg>
